<svg width="24" height="24" viewBox="0 0 24 24" fill="none" xmlns="http://www.w3.org/2000/svg">
<g clip-path="url(#clip0_35_189)">
<path d="M6.02299 19.3531C6.89585 20.3045 8.14139 20.8537 9.43107 20.8537H20.0672C22.2347 20.8537 24 19.0883 24 16.9209V7.07914C24 4.9117 22.2347 3.14636 20.0672 3.14636H9.43107C8.13649 3.14636 6.89585 3.69067 6.02299 4.6469L0.540634 10.6147C-0.180211 11.4042 -0.180211 12.5909 0.540634 13.3804L6.02299 19.3531ZM1.42821 11.4287L6.91056 5.45601C7.55785 4.74988 8.47975 4.34777 9.43597 4.34777H20.0721C21.5776 4.34777 22.8035 5.5737 22.8035 7.07914V16.916C22.8035 18.4214 21.5776 19.6474 20.0721 19.6474H9.43107C8.47484 19.6474 7.55294 19.2453 6.90565 18.5391L1.42821 12.5664C1.12908 12.2428 1.12908 11.7524 1.42821 11.4287Z" fill="white"/>
<path d="M11.0542 15.1899C11.1719 15.3076 11.3239 15.3664 11.4808 15.3664C11.6377 15.3664 11.7898 15.3076 11.9075 15.1899L14.2514 12.8459L16.5954 15.1899C16.7131 15.3076 16.8651 15.3664 17.022 15.3664C17.1789 15.3664 17.331 15.3076 17.4486 15.1899C17.684 14.9545 17.684 14.5769 17.4486 14.3415L15.0998 11.9976L17.4437 9.65358C17.6791 9.41821 17.6791 9.04062 17.4437 8.80524C17.2084 8.56986 16.8308 8.56986 16.5954 8.80524L14.2514 11.1492L11.9075 8.80524C11.6721 8.56986 11.2945 8.56986 11.0591 8.80524C10.8237 9.04062 10.8237 9.41821 11.0591 9.65358L13.4031 11.9976L11.0591 14.3415C10.8237 14.5769 10.8237 14.9545 11.0542 15.1899Z" fill="white"/>
</g>
<defs>
<clipPath id="clip0_35_189">
<rect width="24" height="24" fill="white"/>
</clipPath>
</defs>
</svg>
