<svg width="26" height="26" viewBox="0 0 26 26" fill="none" xmlns="http://www.w3.org/2000/svg">
<path d="M25.7524 24.5882L19.0374 17.9816C20.7974 16.0706 21.8763 13.5434 21.8763 10.7666C21.8763 4.8178 16.9785 0 10.9394 0C4.89519 0 0 4.8178 0 10.7666C0 16.7102 4.89519 21.5332 10.9394 21.5332C13.5469 21.5332 15.9438 20.6284 17.8234 19.1282L24.5617 25.7582C24.8919 26.0806 25.4222 26.0806 25.7524 25.7582C26.0825 25.4332 26.0825 24.9106 25.7524 24.5882ZM10.9394 19.8744C5.82327 19.8744 1.68199 15.795 1.68199 10.7666C1.68199 5.7356 5.82327 1.6536 10.9394 1.6536C16.0504 1.6536 20.1917 5.7356 20.1917 10.7666C20.1917 15.795 16.0504 19.8744 10.9394 19.8744Z" fill="white"/>
</svg>
